<?xml version="1.0" standalone="no"?><!DOCTYPE svg PUBLIC "-//W3C//DTD SVG 1.1//EN" "http://www.w3.org/Graphics/SVG/1.1/DTD/svg11.dtd"><svg class="icon" width="200px" height="200.00px" viewBox="0 0 1024 1024" version="1.1" xmlns="http://www.w3.org/2000/svg"><path fill="#e6e6e6" d="M961 375.4l-2.8-19.3-1.4-9.7-2.2-9.5c-1.5-6.3-2.9-12.7-4.6-19l-6.2-18.6c-9.2-24.4-21.1-48-37.2-68.7-32.2-41.5-79.4-70.8-131.1-82.3-25.8-5.8-52.6-7.7-79.2-4.8-26.6 2.7-52.7 10.6-76.8 22.8-40.6 20.2-74.5 53.4-96.8 93.3-9.3-18.2-21.1-35.3-34.9-50.5-19.9-21.4-43.4-39.5-69.9-52.3-26.4-12.7-55.2-20.9-84.6-23.1-29.4-2.1-58.9 0.9-87.3 8.9-28.3 8-55.4 21.2-79.1 39.2-23.7 17.9-43.9 40.6-59.3 65.9-3.6 6.5-7.7 12.7-10.8 19.4l-9.1 20.2c-4.9 13.8-10.1 27.7-13 42-4 14.2-5.4 28.4-7.7 42.6-1.9 14.3-3.3 29.3-2.8 44.1 0.5 29.6 5.2 58.6 12.9 86.6 7.7 28 18.2 55.1 31 81 25.7 51.7 60.1 99 101.4 139.5 41.3 40.5 90.2 73.4 142.8 97.9 26.4 12.2 53.9 21.6 81.8 29.3 28 7.4 56.6 12.1 85.2 15.3l2.9 0.3 2.6-0.3c60.6-7.5 120.6-24.4 174.7-52.8 54.4-27.7 103-66.1 142.8-111.3 19.9-22.6 37.8-46.8 53.4-72.3 15.6-25.5 29-52.2 39.7-79.9 10.9-27.6 18.9-56.3 23.6-85.5 5.3-29.2 6.1-59.2 2-88.4z m-9.7 86.8c-6.1 28.3-15.8 55.6-27.9 81.8-24.9 52-60.1 98.5-101.7 137.2-20.8 19.3-43.2 36.8-66.8 52.1-23.7 15.2-48.5 28.4-74.1 39.7-6.4 2.8-12.8 5.6-19.4 7.9-6.6 2.3-13 5.1-19.7 7.1l-19.9 6.5-20.2 5.5c-26.1 6.5-52.6 11-79.3 14.1-25.2-3.4-50.2-8.2-74.7-14.6-25.3-7-49.9-15.9-73.9-26.2-47.9-21-91.8-50.5-130.7-85.7-38.5-35.5-71.5-77.5-96-124-12.3-23.2-22.4-47.5-30-72.5-7.6-25-12.4-50.7-13.4-76.3-0.8-12.8 0.1-25.3 1.5-38.4 1.8-13 2.8-26.5 6.1-38.9 2.3-12.8 6.6-24.9 10.5-37.2l7.5-17.7c2.5-5.9 6-11.2 8.9-16.9 12.8-22 29.4-41.6 49.4-57.4 19.9-15.8 42.9-27.8 67.4-35.4 24.5-7.6 50.5-10.8 76.2-9.6 25.7 1.3 51 7.9 74.5 18.5 23.5 10.7 44.7 26.3 62.8 44.8 17.9 18.8 32.2 41 42.6 64.9h22.1c17.2-45.9 51-85.9 94.6-110.2 43.1-25.1 95.8-33 145.7-23.9 50 8.8 97.1 35.6 129.2 75.8 15.8 20.2 28.2 43 36.9 67.2l5.9 18.3c1.6 6.2 2.9 12.5 4.3 18.8l2.1 9.4 1.3 9.6L956 376c3.1 28.8 1.3 57.9-4.7 86.2z"  /></svg>