<?xml version="1.0" standalone="no"?><!DOCTYPE svg PUBLIC "-//W3C//DTD SVG 1.1//EN" "http://www.w3.org/Graphics/SVG/1.1/DTD/svg11.dtd"><svg class="icon" width="200px" height="200.00px" viewBox="0 0 1024 1024" version="1.1" xmlns="http://www.w3.org/2000/svg"><path fill="#ffffff" d="M605.618678 282.842711a147.307262 147.300714 23.291 1 0 116.485767-270.593916 147.307262 147.300714 23.291 1 0-116.485767 270.593916ZM369.631189 294.466202a52.407202 52.407202 0 0 0 9.13508 73.532485l192.327819 149.834962 66.473262-16.305627a96.144264 96.144264 0 0 1 22.952298-2.783089c20.627601 0 40.331871 6.469863 56.991114 18.715455a95.947811 95.947811 0 0 1 39.061472 71.522112l4.852398 77.127581 79.308213 61.791124a52.322073 52.322073 0 0 0 50.049762 7.936715 52.204201 52.204201 0 0 0 23.476174-17.065247 52.381009 52.381009 0 0 0-9.13508-73.525936l-461.960027-359.902518a52.394106 52.394106 0 0 0-73.532485 9.121983zM577.852083 971.719444a82.065108 82.065108 0 0 0 5.775728-56.591658 81.528136 81.528136 0 0 0-14.295254-29.461453l-25.866357-33.672102-93.079592-121.159323 17.045602-4.184456 117.511839-28.826253 15.244779 242.403775 0.438746 6.993739c2.219923 35.433634 26.69146 64.161661 58.955647 73.493194a81.462651 81.462651 0 0 0 27.87018 3.071221c45.118784-2.848573 79.393343-41.720141 76.557867-86.838925l-21.832515-347.067566a81.711492 81.711492 0 0 0-33.213711-60.815405 81.711492 81.711492 0 0 0-67.979404-13.548732l-259.364247 63.637785a4183.159536 4183.159536 0 0 1-7.399743-13.018308l55.524263-13.620765c10.169735-34.510303 22.205776-68.188954 34.287656-99.798296l-94.127344-73.34258c-29.042352-22.644522-34.261462-64.698633-11.636586-93.754082a66.532198 66.532198 0 0 1 29.926392-21.753934 66.532198 66.532198 0 0 1 63.821142 10.117347l60.042689 46.775541c7.628938-49.905697-7.982554-100.531722-47.65958-118.343492-52.564365-23.594046-137.687597-8.04149-187.089064 80.506578C210.104529 405.069432 185.482377 488.018581 176.438975 634.199511c1.237656 86.891312 46.782089 118.81498 95.482871 133.051298l66.401229 86.432921-158.033615 0.013097C135.065902 853.68373 98.420805 890.328826 98.420805 935.526191c0 45.21701 36.645096 81.862107 81.862107 81.862106H504.424373a82.117496 82.117496 0 0 0 73.42771-45.668853z" /></svg>