<?xml version="1.0" standalone="no"?><!DOCTYPE svg PUBLIC "-//W3C//DTD SVG 1.1//EN" "http://www.w3.org/Graphics/SVG/1.1/DTD/svg11.dtd"><svg class="icon" width="200px" height="200.00px" viewBox="0 0 1024 1024" version="1.1" xmlns="http://www.w3.org/2000/svg"><path fill="#ffffff" d="M919.743349 11.869086c-26.391261-26.391261-96.11632-4.747634-188.741732 51.851612A486.49287 486.49287 0 0 0 490.035908 0C219.979304 0 1.029585 218.763537 1.029585 488.63396c0 87.365778 23.319262 169.146105 63.534517 240.081345C6.847764 822.504353-15.494044 893.113776 11.176489 919.737764c55.761429 55.714884 304.314043-102.399953 555.287021-353.047112 250.833341-250.693704 408.994723-499.106682 353.279839-554.821566zM256.005469 744.726934a116.363583 116.363583 0 1 1 0-232.727167 116.363583 116.363583 0 0 1 0 232.727167zM465.459919 372.363467a139.6363 139.6363 0 1 1 0-279.2726 139.6363 139.6363 0 0 1 0 279.2726zM946.274246 232.727167c-65.908334 111.476313-183.854462 257.722065-332.101667 404.759089-136.750483 135.679938-272.849331 245.713343-381.393281 313.250766A524.055035 524.055035 0 0 0 500.741358 1023.999535C789.741954 1023.999535 1024.00512 791.644731 1024.00512 505.017952c0-99.8865-28.485805-193.163549-77.777419-272.290785zM768.005236 837.817801a69.81815 69.81815 0 1 1 0-139.6363 69.81815 69.81815 0 0 1 0 139.6363z"  /></svg>