<?xml version="1.0" standalone="no"?><!DOCTYPE svg PUBLIC "-//W3C//DTD SVG 1.1//EN" "http://www.w3.org/Graphics/SVG/1.1/DTD/svg11.dtd"><svg class="icon" width="200px" height="200.00px" viewBox="0 0 1024 1024" version="1.1" xmlns="http://www.w3.org/2000/svg"><path fill="#ffffff" d="M343.2 499.3c-59.5 0-108-48.4-108-108s48.4-108 108-108 108 48.4 108 108-48.5 108-108 108z m0-195.9c-48.5 0-88 39.5-88 88s39.5 88 88 88 88-39.5 88-88-39.5-88-88-88zM632.2 770.7c-8.5 0-14.7-1.4-15-1.5-0.3-0.1-0.7-0.2-1-0.3l-172.2-59c-0.6-0.2-1.1-0.4-1.6-0.7-41.6-23.1-56.5-56.1-61.6-79.8-7.5-34.5 0.5-73.2 20.9-101 17.9-24.3 36.8-54.2 49.5-75 15-24.6 24.4-53.5 27.9-86.1 1.1-10.5-0.9-22.3-5.9-35.3-6.2-16.2-16.7-31.1-30.2-43.1l-106.4-95c-0.6-0.5-1.1-1.1-1.5-1.7-0.7-1-6.9-10.2-8.8-24-1.7-12.9 0.2-32.4 19.3-51.4 10.6-10.6 22.7-16 35.9-16h0.2c23.4 0.1 41.7 17.5 43.6 19.5l113.6 107.8c2.4 2.2 19.5 18.2 30.7 50.8 10.3 30.1 17.5 81-5.4 154.3 8.1 8.8 26.4 30.2 45 61.7 22.5 38.2 49.7 99.1 51.1 172.4v0.9c0.4 0.2 0.8 0.3 1.1 0.5 13.7 7.7 36.4 31.5 23.9 67.1-6.6 18.7-20.7 30.5-40.9 33.9-4.4 0.7-8.5 1-12.2 1zM622 749.8c1.9 0.4 10.4 1.7 19.5 0.1 12.6-2.3 20.7-9.1 24.8-20.8 4.2-11.9 3.1-22.5-3.1-31.7-4.1-6.1-9.4-9.8-11.1-10.9l-159.7-57.6c-5.2-1.9-7.9-7.6-6-12.8 1.9-5.2 7.6-7.9 12.8-6L640 660.9c-5.4-128.6-93.3-217.1-94.2-218-2.7-2.7-3.6-6.6-2.5-10.2 12.8-38.8 24.5-95.5 7.8-145.9-9.9-29.8-25.3-43.5-25.5-43.7-0.1-0.1-0.2-0.2-0.4-0.3l-113.8-108-0.2-0.2s-7.6-7.5-18.1-11.4c-12.6-4.7-23.5-2.1-33.4 7.9-10.4 10.4-15.1 21.9-13.7 33.9 0.8 7.4 3.8 13.1 4.9 15.1l105.4 94c15.9 14.2 28.2 31.8 35.5 50.8 6.2 15.9 8.6 31 7.1 44.6-3.8 35.5-14.1 67.2-30.7 94.4-12.9 21.1-32.2 51.5-50.5 76.4-17.1 23.3-23.8 55.8-17.5 84.8 6.1 27.9 23.7 50.8 51 66.2L622 749.8zM735.2 879.2H378.9c-0.6 0-16.1-0.1-31.6-6.6-21.8-9.2-33.9-27-33.9-50.1 0-50.9 31.4-61.3 36.4-62.6l93.8-29.4v-26c0-5.5 4.5-10 10-10s10 4.5 10 10v33.4c0 4.4-2.8 8.2-7 9.5l-101 31.6c-0.4 0.1-0.5 0.2-0.8 0.2-1.8 0.5-21.4 6.8-21.4 43.2 0 15.2 7.1 25.5 21.6 31.7 11.7 4.9 23.7 5.1 23.9 5.1H735c4-0.2 33.8-3.4 33.8-41.7 0-16.9-6.7-29.8-19.9-38.3-10.6-6.9-21.6-8.5-21.7-8.5-0.6-0.1-1.1-0.2-1.7-0.4L671.6 753c-5.3-1.7-8.1-7.3-6.5-12.6 1.7-5.3 7.3-8.2 12.6-6.5l53.2 17.1c3.6 0.6 15.9 3.2 28.1 10.9 13.6 8.6 29.8 25.2 29.8 55.6 0 30.5-14.4 45.7-26.6 53.1-12.7 7.8-25.2 8.5-26.6 8.6h-0.4zM661.4 796.5H441.2c-5.5 0-10-4.5-10-10s4.5-10 10-10h220.2c5.5 0 10 4.5 10 10s-4.5 10-10 10zM597 879.1l-2.3-19.9h-0.1c0.1 0 5.8-0.8 11.2-4.9 6.9-5.2 10.4-13.5 10.4-24.8 0-11.9-3.9-21.1-11.5-27.4-5.5-4.5-11-5.9-11.1-5.9-5.4-1.2-8.8-6.6-7.5-12 1.2-5.4 6.6-8.8 12-7.5 13.2 3 38.2 17.9 38.2 52.8-0.1 35.7-25.8 48.1-39.3 49.6z" /></svg>