<?xml version="1.0" standalone="no"?><!DOCTYPE svg PUBLIC "-//W3C//DTD SVG 1.1//EN" "http://www.w3.org/Graphics/SVG/1.1/DTD/svg11.dtd"><svg class="icon" width="200px" height="200.00px" viewBox="0 0 1024 1024" version="1.1" xmlns="http://www.w3.org/2000/svg"><path fill="#ffffff" d="M239.2 1024c-61.3 0-122.6-23.3-169.2-69.9-93.3-93.3-93.3-245.1 0-338.4l119.4-119.4 31.5 31.5-119.5 119.3c-75.9 75.9-75.9 199.6 0 275.5 76 75.9 199.5 75.9 275.5 0L581.5 718c75.9-75.9 75.9-199.6 0-275.5L613 411c93.3 93.3 93.3 245.1 0 338.4L408.4 954.1c-46.7 46.6-108 69.9-169.2 69.9z"  /><path fill="#ffffff" d="M411 613c-93.3-93.3-93.3-245.1 0-338.4L615.6 70c93.3-93.3 245.1-93.3 338.4 0 93.3 93.3 93.3 245.1 0 338.4L834.7 527.7l-31.5-31.5 119.4-119.4c75.9-75.9 75.9-199.6 0-275.5-76-75.9-199.5-75.9-275.5 0L442.5 306.1c-75.9 75.9-75.9 199.6 0 275.5L411 613z"  /></svg>