<?xml version="1.0" standalone="no"?><!DOCTYPE svg PUBLIC "-//W3C//DTD SVG 1.1//EN" "http://www.w3.org/Graphics/SVG/1.1/DTD/svg11.dtd"><svg class="icon" width="200px" height="200.00px" viewBox="0 0 1024 1024" version="1.1" xmlns="http://www.w3.org/2000/svg"><path fill="#ffffff" d="M845.32 326.67c-20.23-30.33-54.38-48.43-91.37-48.43-21.42 0-42.09 6.1-59.86 17.66l-17.62 10.84-33.01-33.03c6.87-16.37 10.5-33.61 10.53-51.04C653.98 135.14 582.85 64 495.41 64c-87.44 0-158.57 71.14-158.57 158.57 0 27.57 8.57 56.75 26.64 81.86-8.31 9.32-15.06 20.19-19.81 32.24-0.81 2.05-1.49 4.14-2.05 6.26l-7.41 20.9-46.56-12.55c-2.65-0.71-5.35-1.23-8.07-1.55-5.81-0.94-11.72-1.42-17.61-1.42-52.11 0-97.25 36.52-107.33 86.85-11.08 55.51 20.47 110.63 73.37 128.23 2.93 0.98 5.93 1.71 8.98 2.18l105.62 31.41-30.37 99.54c-10.23 25.21-10.07 53.47 0.55 79.99 0.17 0.42 0.34 0.83 0.51 1.24l47.02 109.76c0.52 1.6 1.11 3.17 1.78 4.72C379.74 933.4 419.16 960 462.53 960h1.01c4.78 0 18.02 0 34.52-5.87 3.81-0.98 7.51-2.36 11.02-4.1a56.05 56.05 0 0 0 8.22-5.02c13.5-8.06 24.72-18.57 33.33-30.68 15.8 10.34 33.04 15.56 51.56 15.56 19.93 0 39.95-6.01 56.7-16.78 3.08-1.51 6.06-3.33 8.9-5.44a56.64 56.64 0 0 0 6.91-6.11c2.37-2.26 4.51-4.71 6.43-7.31 34.54-36.56 40.3-91.81 13.21-133.6L638.43 636v-84.04c8.11 1.92 16.51 2.9 25.05 2.9 19.61 0 38.57-5.24 55.28-15.23a56.18 56.18 0 0 0 5.17-2.93l88.1-56.28c2.42-1.31 4.73-2.79 6.93-4.44 47.05-35.32 58.63-100.9 26.36-149.31z m-59.99 104.51c-0.38 0.21-0.77 0.4-1.17 0.58l-90.4 57.75h-0.58a51.855 51.855 0 0 1-29.72 9.35c-13.38 0-26.68-5.15-36.73-15.18l-44.32-49.54v213.84l62.9 140.24c17.2 22.92 11.55 54.4-9.9 72.26l0.58 0.6c-0.36 0.34-0.81 0.22-1.18 0.56-0.35 0.3-0.19 0.9-0.56 1.17l-0.6-0.58c-9.66 8.35-21.65 11.66-31.48 11.66-15.31 0-27.2-9.19-37.87-22.54v-0.58l-59.45-98.12c-4.04-4.81-19.49-67.88-19.49-67.88a29.641 29.641 0 0 0-6.84 28.17l33.55 119.95-1.18 0.58c10.07 26.05-2.51 54.12-26.8 65.87v0.56c-0.06 0.03-0.14 0.04-0.22 0.04-0.23 0-0.53-0.07-0.75-0.07-0.08 0-0.14 0.01-0.2 0.03-8.72 3.93-15.57 4.1-19.4 4.1h-1.01c-21.91 0-40.48-14.04-48.95-33.81v-0.58l-48.8-113.91c-5.09-12.72-5.65-27.01 0-39.63l0.58-1.17c0.08-0.17-0.09-0.39 0-0.56l47.27-154.95-165.2-49.13c-0.29 0.01-0.58 0.02-0.87 0.02s-0.58-0.01-0.87-0.02c-26.22-8.73-41.74-36.07-36.14-64.1 5.07-25.33 27.98-41.85 52.41-41.85 3.5 0 7.04 0.34 10.55 1.04h0.56l96.6 26.04 26.1-73.6v-0.58a51.154 51.154 0 0 1 37.86-31.48c0.47-0.09 0.71-0.51 1.18-0.58l44.86-6.93c3.5-0.54 3.48-5.5-0.01-6.11-58.61-10.28-86.81-49.83-86.81-89.54 0-56.43 46.14-102.57 102.57-102.57 56.43 0 102.58 46.14 102.58 102.57-0.04 23.16-12.18 50.67-40.68 72.61-3.25 2.5-1.3 7.47 2.46 7.47 0.3 0 0.61-0.03 0.93-0.1 6.45-1.35 13.12-2.31 19.02-2.31 6.64 0 12.3 1.22 15.56 4.48l72.84 72.88 56.01-34.44c9.04-6.03 19.46-8.93 29.82-8.93 17.37 0 34.56 8.17 44.78 23.49 16.68 25.02 8.49 57.05-13.39 73.46z" /></svg>