<?xml version="1.0" standalone="no"?><!DOCTYPE svg PUBLIC "-//W3C//DTD SVG 1.1//EN" "http://www.w3.org/Graphics/SVG/1.1/DTD/svg11.dtd"><svg class="icon" width="200px" height="200.00px" viewBox="0 0 1024 1024" version="1.1" xmlns="http://www.w3.org/2000/svg"><path fill="#ffffff" d="M949.664 656.224a32 32 0 0 1 0 45.248l-248.448 248.448-0.256 0.32-0.192 0.16a32 32 0 0 1-45.248 0l-2.656-3.04-110.304-110.272a32 32 0 0 1 42.24-47.904l3.04 2.656 90.496 90.464 226.08-226.08a32 32 0 0 1 45.248 0zM512 96c229.76 0 416 186.24 416 416 0 12.256-0.544 24.48-1.6 36.608a32 32 0 0 1-63.744-5.568c0.896-10.272 1.344-20.64 1.344-31.04 0-194.4-157.6-352-352-352S160 317.6 160 512c0 183.232 140.576 335.424 321.92 350.72a32 32 0 0 1-5.376 63.776C262.112 908.384 96 728.544 96 512 96 282.24 282.24 96 512 96z m0 192a224 224 0 1 1 0 448 224 224 0 0 1 0-448z m0 64a160 160 0 1 0 0 320 160 160 0 0 0 0-320z m0 96a64 64 0 1 1 0 128 64 64 0 0 1 0-128z"  /></svg>