<?xml version="1.0" standalone="no"?><!DOCTYPE svg PUBLIC "-//W3C//DTD SVG 1.1//EN" "http://www.w3.org/Graphics/SVG/1.1/DTD/svg11.dtd"><svg class="icon" width="200px" height="200.00px" viewBox="0 0 1024 1024" version="1.1" xmlns="http://www.w3.org/2000/svg"><path fill="#ffffff" d="M582.656 418.304c-31.744 12.288-58.368 29.184-84.992 51.2-26.624 22.016-48.64 46.08-65.536 73.216-19.456 26.624-34.304 55.808-44.032 90.112-9.728 31.744-14.848 65.536-14.848 102.4 0 31.744 5.12 60.928 12.288 90.112 7.168 29.184 19.456 55.808 34.304 80.384h-24.576c-16.896 0-38.912 0-60.928-2.56-24.576 0-46.08-2.56-73.216-5.12L187.904 890.88c-24.576-2.56-46.08-5.12-65.536-9.728-19.456-2.56-36.352-5.12-51.2-9.728-14.848-2.56-22.016-5.12-26.624-9.728-7.168-5.12-12.288-19.456-14.848-44.032s-2.56-55.808 5.12-97.28c2.56-14.848 7.168-26.624 14.848-36.352s16.896-16.896 26.624-24.576 22.016-12.288 36.352-16.896c9.728-5.12 24.576-7.168 38.912-12.288 14.848-5.12 26.624-7.168 41.472-12.288 12.288-5.12 24.576-9.728 36.352-16.896 12.288-7.168 22.016-14.848 29.184-22.016 7.168-7.168 12.288-14.848 14.848-22.016s5.12-14.848 5.12-22.016v-26.624c0-14.848-5.12-24.576-14.848-34.304-7.168-7.168-16.896-16.896-29.184-24.576-7.168-5.12-12.288-9.728-14.848-16.896-5.12-7.168-7.168-14.848-9.728-22.016-2.56-9.728-7.168-19.456-9.728-29.184-5.12 0-7.168-2.56-12.288-7.168l-12.288-12.288c-5.12-5.12-7.168-12.288-9.728-24.576-2.56-9.728-5.12-19.456-2.56-26.624 0-7.168 2.56-16.896 5.12-22.016 2.56-7.168 7.168-12.288 12.288-19.456 0-22.016 0-46.08 2.56-68.096 0-22.016 5.12-41.472 12.288-63.488 5.12-22.016 14.848-41.472 29.184-58.368 12.288-16.896 24.576-31.744 38.912-41.472 14.848-9.728 29.184-19.456 44.032-24.576S336.896 3.584 351.744 1.024c14.336-1.024 28.672-1.024 43.52-1.024 16.896 0 34.304 2.56 51.2 5.12 16.896 5.12 34.304 9.728 48.64 14.848 14.848 7.168 29.184 14.848 41.472 22.016 12.288 7.168 22.016 16.896 26.624 24.576 14.848 19.456 26.624 41.472 34.304 63.488 7.168 24.576 12.288 46.08 14.848 65.536 2.56 24.576 5.12 48.64 5.12 73.216 5.12 2.56 7.168 7.168 9.728 12.288s5.12 9.728 5.12 16.896c2.56 7.168 2.56 14.848 0 24.576 0 12.288-5.12 24.576-7.168 31.744-5.12 7.168-7.168 14.848-12.288 16.896-5.12 5.12-12.288 7.168-16.896 9.728-2.56 5.12-2.56 7.168-2.56 12.288l-5.12 12.288c-3.072 3.072-3.072 8.192-5.632 12.8z m129.024 29.184c38.912 0 75.264 7.168 112.128 22.016 34.304 14.848 65.536 36.352 90.112 60.928 26.624 26.624 46.08 55.808 60.928 90.112 14.848 34.304 22.016 70.656 22.016 109.568s-7.168 75.264-22.016 109.568c-14.848 34.304-36.352 65.536-60.928 90.112-26.624 26.624-55.808 46.08-90.112 60.928-34.304 14.848-73.216 22.016-112.128 22.016s-77.824-7.168-112.128-22.016c-34.304-14.848-65.536-34.304-90.112-60.928-26.624-26.624-46.08-55.808-60.928-90.112-14.848-34.304-22.016-70.656-22.016-109.568s7.168-75.264 22.016-109.568c14.848-34.304 36.352-65.536 60.928-90.112 26.624-26.624 55.808-46.08 90.112-60.928 34.304-14.848 73.216-22.016 112.128-22.016z m167.424 228.864c2.56-12.288 2.56-22.016-5.12-34.304-7.168-9.728-16.896-16.896-26.624-22.016-12.288-5.12-22.016-5.12-34.304 0-12.288 2.56-19.456 12.288-24.576 29.184-2.56 9.728-5.12 19.456-9.728 29.184-2.56 9.728-5.12 19.456-7.168 26.624-2.56 9.728-5.12 19.456-9.728 31.744-5.12 12.288-9.728 24.576-14.848 38.912-5.12 14.848-14.848 22.016-26.624 22.016s-19.456-7.168-26.624-19.456-12.288-24.576-19.456-38.912c-5.12-14.848-12.288-26.624-16.896-41.472l-14.848-36.352c-5.12-9.728-7.168-19.456-9.728-26.624-5.12-9.728-12.288-14.848-24.576-16.896-12.288 0-22.016 0-31.744 5.12-9.728 5.12-19.456 12.288-26.624 22.016-7.168 9.728-7.168 19.456-2.56 31.744 5.12 14.848 9.728 26.624 14.848 41.472 5.12 14.848 12.288 31.744 16.896 46.08 5.12 14.848 12.288 31.744 16.896 46.08 5.12 14.848 9.728 29.184 14.848 38.912 9.728 22.016 22.016 38.912 41.472 51.2 19.456 12.288 38.912 16.896 58.368 16.896s38.912-5.12 58.368-14.848c19.456-9.728 31.744-24.576 41.472-44.032 7.168-16.896 14.848-31.744 19.456-48.64 7.168-16.896 14.848-34.304 19.456-51.2 7.168-16.896 12.288-31.744 16.896-46.08 5.632-12.288 8.192-24.576 12.8-36.352z"  /></svg>