<?xml version="1.0" standalone="no"?><!DOCTYPE svg PUBLIC "-//W3C//DTD SVG 1.1//EN" "http://www.w3.org/Graphics/SVG/1.1/DTD/svg11.dtd"><svg class="icon" width="200px" height="200.00px" viewBox="0 0 1024 1024" version="1.1" xmlns="http://www.w3.org/2000/svg"><path fill="#ffffff" d="M529.464 629.573a90.5 90.5 0 0 1-17.764-1.767 90.088 90.088 0 0 1-70.671-106.007l37.037-185.18a90.088 90.088 0 1 1 176.677 35.336l-37.036 185.181a90.121 90.121 0 0 1-88.243 72.437zM352.16 503.445a50.07 50.07 0 0 1-45.1-71.694l58.057-121.118a50.049 50.049 0 0 1 39.383-28.084l160.157-18.518a50.049 50.049 0 0 1 11.5 99.435l-132.711 15.345-46.116 96.207a50.055 50.055 0 0 1-45.17 28.427zM698.533 483.414a50.049 50.049 0 0 1-31.217-10.929l-99.1-79.077a50.049 50.049 0 1 1 62.434-78.24l81.721 65.211 100.182-16.423a50.051 50.051 0 1 1 16.196 98.783l-122.119 20.02a50.054 50.054 0 0 1-8.097 0.655zM405.246 738.663h-202.2a50.05 50.05 0 1 1 0-100.1h177.446l82.072-107.454a50.049 50.049 0 0 1 79.549 60.758l-97.095 127.124a50.051 50.051 0 0 1-39.772 19.672zM631.528 962.89a50.092 50.092 0 0 1-49.5-57.838l29.728-188.859-118.253-102.938a50.05 50.05 0 1 1 65.722-75.5l139.136 121.118a50.047 50.047 0 0 1 16.579 45.532l-34.033 216.211a50.061 50.061 0 0 1-49.379 42.274zM599.436 149.087m-89.087 0a89.087 89.087 0 1 0 178.174 0 89.087 89.087 0 1 0-178.174 0Z" /></svg>