<?xml version="1.0" standalone="no"?><!DOCTYPE svg PUBLIC "-//W3C//DTD SVG 1.1//EN" "http://www.w3.org/Graphics/SVG/1.1/DTD/svg11.dtd"><svg class="icon" width="200px" height="200.00px" viewBox="0 0 1024 1024" version="1.1" xmlns="http://www.w3.org/2000/svg"><path fill="#ffffff" d="M908.9 541.6c-14.3-9.4-32.7-9.2-46.9 0.5-53.4 36.7-115.9 54.2-180.6 50.8-71.4-3.8-139.1-34.4-190.9-86.2-51.8-51.9-83-120.6-87.7-193.2-3.5-54.3 7.3-108.3 31.2-156.2 7.7-15.4 5.4-33.8-5.9-46.8-11.2-12.9-28.9-17.7-45-12.2-41.4 14-80.4 34.4-115.7 60.7-34.9 26-65.5 57.1-91 92.6-53 73.6-80.9 160.9-80.5 252.4 0.4 108.3 41.6 211.7 116.1 291.2 74.7 79.7 174.5 126.7 281.2 132.3 7.5 0.4 14.9 0.6 22.4 0.6 44.4 0 88.1-7 130.1-20.9 47.2-15.6 90.9-39.4 130-70.8 78.4-63 132.2-152.2 151.4-251.3 3.4-17-3.8-34.1-18.2-43.5zM735.7 786.4c-33.1 26.6-70.1 46.8-110 60-41.4 13.7-84.8 19.5-129 17.2-90.1-4.7-174.6-44.6-237.9-112.2-63.4-67.7-98.5-155.7-98.8-247.7-0.3-77.9 23.4-152.2 68.5-214.8 21.7-30.1 47.7-56.6 77.3-78.6 16-12 33-22.5 50.6-31.5-14.4 44.4-20.4 91.5-17.3 138.8 5.7 88.2 43.4 171.4 106.2 234.3 62.9 63 145.6 100.3 232.8 104.9 6.5 0.3 13 0.5 19.4 0.5 53.7 0 105.8-11.9 153.6-35-22.2 64.2-62.1 121.3-115.4 164.1zM559.5 347.2l160 96.2c5.2 3.1 10.8 4.6 16.5 4.6 10.9 0 21.5-5.5 27.5-15.5 9.1-15.1 4.2-34.8-10.9-43.9l-93.8-56.4L839.7 287c12.6-3.1 22-13.5 23.9-26.3 1.9-12.8-4.1-25.5-15.2-32.2l-160-96c-15.2-9.1-34.8-4.2-43.9 11-9.1 15.2-4.2 34.8 11 43.9l93.7 56.2-181 45.1c-12.6 3.1-22 13.5-23.9 26.3-1.9 12.9 4.1 25.5 15.2 32.2z" /></svg>