<?xml version="1.0" standalone="no"?><!DOCTYPE svg PUBLIC "-//W3C//DTD SVG 1.1//EN" "http://www.w3.org/Graphics/SVG/1.1/DTD/svg11.dtd"><svg class="icon" width="200px" height="200.00px" viewBox="0 0 1024 1024" version="1.1" xmlns="http://www.w3.org/2000/svg"><path fill="#ffffff" d="M847.6 103.5c-17.7-9.6-39.3-8.8-56.2 2.2l-539.6 351V151.9c0-30.4-24.6-55-55-55s-55 24.6-55 55v721.3c0 30.4 24.6 55 55 55s55-24.7 55-55V568.4l539.6 350.9c9.1 5.9 19.5 8.9 30 8.9 9 0 18-2.2 26.2-6.7 17.8-9.6 28.8-28.2 28.8-48.4V151.9c0.1-20.2-11-38.8-28.8-48.4z"  /></svg>