<?xml version="1.0" standalone="no"?><!DOCTYPE svg PUBLIC "-//W3C//DTD SVG 1.1//EN" "http://www.w3.org/Graphics/SVG/1.1/DTD/svg11.dtd"><svg class="icon" width="200px" height="200.00px" viewBox="0 0 1024 1024" version="1.1" xmlns="http://www.w3.org/2000/svg"><path fill="#000000" d="M790.528 538.112 233.472 538.112c-16.384 0-29.184-13.312-29.184-29.184s13.312-29.184 29.184-29.184l556.544 0c16.384 0 29.184 13.312 29.184 29.184S806.4 538.112 790.528 538.112zM848.896 316.928c-16.384 0-29.184-13.312-29.184-29.184L819.712 220.672c0-8.192-6.656-14.848-14.848-14.848l-163.84 0c-16.384 0-29.184-13.312-29.184-29.184 0-16.384 13.312-29.184 29.184-29.184l163.84 0c40.448 0 73.216 32.768 73.216 73.216l0 67.072C878.08 304.128 865.28 316.928 848.896 316.928zM804.864 876.544l-163.84 0c-16.384 0-29.184-13.312-29.184-29.184s13.312-29.184 29.184-29.184l163.84 0c8.192 0 14.848-6.656 14.848-14.848l0-149.504c0-16.384 13.312-29.184 29.184-29.184s29.184 13.312 29.184 29.184l0 149.504C878.08 843.264 845.312 876.544 804.864 876.544zM368.128 876.544 219.136 876.544c-40.448 0-73.216-32.768-73.216-73.216l0-149.504c0-16.384 13.312-29.184 29.184-29.184s29.184 13.312 29.184 29.184l0 149.504c0 8.192 6.656 14.848 14.848 14.848l148.992 0c16.384 0 29.184 13.312 29.184 29.184S384 876.544 368.128 876.544zM175.104 390.144c-16.384 0-29.184-13.312-29.184-29.184L145.92 220.672c0-40.448 32.768-73.216 73.216-73.216l148.992 0c16.384 0 29.184 13.312 29.184 29.184 0 16.384-13.312 29.184-29.184 29.184L219.136 205.824c-8.192 0-14.848 6.656-14.848 14.848l0 140.288C204.288 377.344 190.976 390.144 175.104 390.144z" /></svg>